<svg data-v-423bf9ae="" xmlns="http://www.w3.org/2000/svg" viewBox="0 0 361 91" class="iconLeft"><!----><!----><!----><g data-v-423bf9ae="" id="9be0abee-2841-4280-afeb-39dddd70506a" fill="white" transform="matrix(4.720691999836127,0,0,4.720691999836127,107.5836092037591,1.3572021812654498)"><path d="M5.30 15.60L5.30 11.92L5.30 11.92Q4.97 12.35 4.47 12.54L4.47 12.54L4.47 12.54Q3.97 12.74 3.39 12.74L3.39 12.74L3.39 12.74Q2.46 12.74 1.79 12.26L1.79 12.26L1.79 12.26Q1.12 11.78 0.78 10.97L0.78 10.97L0.78 10.97Q0.43 10.16 0.43 9.19L0.43 9.19L0.43 9.19Q0.43 8.22 0.78 7.41L0.78 7.41L0.78 7.41Q1.12 6.60 1.78 6.12L1.78 6.12L1.78 6.12Q2.45 5.63 3.36 5.63L3.36 5.63L3.36 5.63Q3.94 5.63 4.45 5.84L4.45 5.84L4.45 5.84Q4.97 6.04 5.30 6.46L5.30 6.46L5.30 5.78L6.99 5.78L6.99 15.60L5.30 15.60ZM3.79 11.20L3.79 11.20Q4.62 11.20 5.03 10.65L5.03 10.65L5.03 10.65Q5.45 10.10 5.45 9.19L5.45 9.19L5.45 9.19Q5.45 8.27 5.03 7.71L5.03 7.71L5.03 7.71Q4.61 7.14 3.79 7.14L3.79 7.14L3.79 7.14Q2.97 7.14 2.55 7.71L2.55 7.71L2.55 7.71Q2.13 8.29 2.13 9.19L2.13 9.19L2.13 9.19Q2.13 10.10 2.55 10.65L2.55 10.65L2.55 10.65Q2.97 11.20 3.79 11.20L3.79 11.20ZM11.27 12.74L11.27 12.74Q10.01 12.74 9.39 11.85L9.39 11.85L9.39 11.85Q8.78 10.96 8.78 9.37L8.78 9.37L8.78 5.78L10.47 5.78L10.47 9.43L10.47 9.43Q10.47 10.03 10.57 10.42L10.57 10.42L10.57 10.42Q10.67 10.81 10.94 11.02L10.94 11.02L10.94 11.02Q11.21 11.23 11.70 11.23L11.70 11.23L11.70 11.23Q12.40 11.23 12.84 10.72L12.84 10.72L12.84 10.72Q13.28 10.20 13.28 8.85L13.28 8.85L13.28 5.78L14.98 5.78L14.98 12.61L13.28 12.61L13.28 11.81L13.28 11.81Q12.92 12.28 12.40 12.51L12.40 12.51L12.40 12.51Q11.89 12.74 11.27 12.74L11.27 12.74ZM18.83 12.74L18.83 12.74Q18.12 12.74 17.56 12.48L17.56 12.48L17.56 12.48Q16.99 12.22 16.67 11.71L16.67 11.71L16.67 11.71Q16.34 11.20 16.34 10.51L16.34 10.51L16.34 10.51Q16.34 9.46 17.08 9.00L17.08 9.00L17.08 9.00Q17.81 8.53 19.07 8.53L19.07 8.53L20.84 8.53L20.84 8.53Q20.84 7.87 20.49 7.48L20.49 7.48L20.49 7.48Q20.15 7.09 19.50 7.09L19.50 7.09L19.50 7.09Q18.95 7.09 18.54 7.36L18.54 7.36L18.54 7.36Q18.14 7.63 17.89 8.05L17.89 8.05L16.61 7.13L16.61 7.13Q17.14 6.41 17.83 6.02L17.83 6.02L17.83 6.02Q18.53 5.63 19.48 5.63L19.48 5.63L19.48 5.63Q20.40 5.63 21.06 5.99L21.06 5.99L21.06 5.99Q21.73 6.34 22.08 6.99L22.08 6.99L22.08 6.99Q22.44 7.63 22.44 8.46L22.44 8.46L22.44 12.61L21.06 12.61L20.95 11.63L20.95 11.63Q20.54 12.24 20.01 12.49L20.01 12.49L20.01 12.49Q19.48 12.74 18.83 12.74L18.83 12.74ZM19.07 11.33L19.07 11.33Q19.53 11.33 19.93 11.11L19.93 11.11L19.93 11.11Q20.34 10.89 20.58 10.52L20.58 10.52L20.58 10.52Q20.83 10.16 20.84 9.73L20.84 9.73L19.16 9.73L19.16 9.73Q18.62 9.73 18.34 9.97L18.34 9.97L18.34 9.97Q18.05 10.21 18.05 10.56L18.05 10.56L18.05 10.56Q18.05 10.91 18.32 11.12L18.32 11.12L18.32 11.12Q18.59 11.33 19.07 11.33L19.07 11.33ZM24.21 12.61L24.21 5.78L25.87 5.78L25.87 6.57L25.87 6.57Q26.26 6.10 26.80 5.87L26.80 5.87L26.80 5.87Q27.34 5.63 27.88 5.63L27.88 5.63L27.88 5.63Q28.73 5.63 29.29 6.04L29.29 6.04L29.29 6.04Q29.85 6.44 30.10 7.09L30.10 7.09L30.10 7.09Q30.36 7.75 30.36 8.50L30.36 8.50L30.36 12.61L28.71 12.61L28.71 8.72L28.71 8.72Q28.71 8.03 28.37 7.60L28.37 7.60L28.37 7.60Q28.03 7.17 27.41 7.17L27.41 7.17L27.41 7.17Q26.67 7.17 26.27 7.59L26.27 7.59L26.27 7.59Q25.87 8.00 25.87 8.87L25.87 8.87L25.87 12.61L24.21 12.61ZM34.58 12.74L34.58 12.74Q33.91 12.74 33.42 12.50L33.42 12.50L33.42 12.50Q32.94 12.25 32.69 11.80L32.69 11.80L32.69 11.80Q32.43 11.34 32.43 10.72L32.43 10.72L32.43 7.17L31.33 7.17L31.33 5.78L32.46 5.78L32.46 4.08L34.08 2.89L34.08 5.78L35.81 5.78L35.81 7.17L34.08 7.17L34.08 10.42L34.08 10.42Q34.08 10.89 34.29 11.08L34.29 11.08L34.29 11.08Q34.49 11.27 34.86 11.27L34.86 11.27L34.86 11.27Q35.10 11.27 35.35 11.20L35.35 11.20L35.35 11.20Q35.60 11.13 35.81 11.03L35.81 11.03L35.81 12.54L35.81 12.54Q35.59 12.62 35.25 12.68L35.25 12.68L35.25 12.68Q34.90 12.74 34.58 12.74L34.58 12.74ZM37.56 12.61L37.56 2.95L40.36 2.95L40.36 2.95Q41.99 2.95 43.12 3.52L43.12 3.52L43.12 3.52Q44.24 4.09 44.81 5.18L44.81 5.18L44.81 5.18Q45.38 6.28 45.38 7.85L45.38 7.85L45.38 7.85Q45.38 9.35 44.80 10.42L44.80 10.42L44.80 10.42Q44.21 11.48 43.09 12.04L43.09 12.04L43.09 12.04Q41.96 12.61 40.35 12.61L40.35 12.61L37.56 12.61ZM39.29 11.01L40.17 11.01L40.17 11.01Q41.86 11.01 42.76 10.26L42.76 10.26L42.76 10.26Q43.65 9.51 43.65 7.77L43.65 7.77L43.65 7.77Q43.65 6.62 43.31 5.91L43.31 5.91L43.31 5.91Q42.98 5.20 42.25 4.87L42.25 4.87L42.25 4.87Q41.53 4.54 40.33 4.54L40.33 4.54L39.29 4.54L39.29 11.01ZM47.19 12.61L47.19 2.95L50.22 2.95L50.22 2.95Q51.21 2.95 51.98 3.28L51.98 3.28L51.98 3.28Q52.75 3.62 53.19 4.27L53.19 4.27L53.19 4.27Q53.63 4.92 53.63 5.80L53.63 5.80L53.63 5.80Q53.63 6.69 53.19 7.31L53.19 7.31L53.19 7.31Q52.75 7.94 51.98 8.27L51.98 8.27L51.98 8.27Q51.21 8.60 50.22 8.60L50.22 8.60L48.91 8.60L48.91 12.61L47.19 12.61ZM48.91 6.98L50.22 6.98L50.22 6.98Q51.09 6.98 51.50 6.69L51.50 6.69L51.50 6.69Q51.91 6.39 51.91 5.80L51.91 5.80L51.91 5.80Q51.91 4.57 50.22 4.57L50.22 4.57L48.91 4.57L48.91 6.98Z"></path></g><!----><g data-v-423bf9ae="" id="d5fe4cc7-a355-49ca-bd84-bed855afad31" transform="matrix(2.156140555781287,0,0,2.156140555781287,-17.115997983936417,-10.930423430733391)" stroke="none" fill="white"><path clip-rule="evenodd" d="M49.611 16.958c0-1.65-1.227-3.564-2.725-4.254L31.559 5.647c-1.498-.69-3.951-.69-5.45 0l-15.331 7.057c-1.499.69-2.726 2.604-2.726 4.254v18.083c0 1.65 1.227 3.564 2.726 4.255l15.331 7.058c1.499.689 3.952.689 5.45 0l15.33-7.058c1.498-.69 2.725-2.604 2.725-4.255l-.003-18.083zm-5.26 2.518l-11.574 5.327c-.999.459-1.816 1.736-1.816 2.836V39.92c0 1.1-.9 2-2 2h-.262c-1.1 0-2-.9-2-2V27.638c0-1.101-.817-2.376-1.816-2.836l-11.571-5.325a2.006 2.006 0 0 1-.98-2.653l.109-.239a2.005 2.005 0 0 1 2.652-.98l11.921 5.488c.999.46 2.634.46 3.633 0l11.924-5.488a2.005 2.005 0 0 1 2.652.98l.109.239a2.006 2.006 0 0 1-.981 2.652z"></path></g><!----></svg>